<svg version="1.2" xmlns="http://www.w3.org/2000/svg" viewBox="0 0 2000 2000" width="2000" height="2000">
	<title>w-ai</title>
	<style>
		tspan { white-space:pre } 
		.s0 { fill: #3cc14e } 
		.s1 { fill: #000000 } 
	</style>
	<g id="Layer 1">
		<g id="&lt;Group&gt;">
			<g id="&lt;Group&gt;">
				<path id="&lt;Path&gt;" class="s0" d="m541.2 1811.4l-352.3 88.8 96.1-338.3c-102-148-161.8-327.3-161.8-520.6 0-507 411.1-918.1 918.1-918.1 507 0 918.1 411.1 918.1 918.1 0 507-411.1 918.1-918.1 918.1-184.4 0-356.2-54.4-500-148z"/>
				<path id="&lt;Path&gt;" class="s1" d="m245.3 507.4c79-121.8 187.2-223 314.6-293.7 127.4-70.8 273.9-111 430-111 155.6 0 301.5 39.9 428.6 110.2 127.1 70.2 235.1 170.7 314.4 291.8 9.3 14.2 28.4 18.2 42.7 8.9 14.2-9.4 18.2-28.5 8.9-42.7-84.8-129.4-200.3-236.9-336.2-312-135.8-75.1-292.2-117.9-458.4-117.9-166.8 0-323.7 43.1-460 118.7-136.2 75.7-251.8 183.9-336.4 314.1-9.2 14.3-5.2 33.4 9.1 42.7 14.3 9.2 33.4 5.2 42.7-9.1z"/>
				<path id="&lt;Path&gt;" class="s1" d="m167.1 1857.2l96.2-338.2c2.5-8.9 1-18.4-4.3-26-49.3-71.5-88.4-150.6-115.2-235.1-26.7-84.5-41.1-174.4-41.1-267.9 0-111.8 20.6-218.6 58.3-317 3.7-9.6 10-17.3 18-22.7 8-5.4 17.5-8.4 27.3-8.4 4.4 0 8.9 0.6 13.5 1.9 18.5 5.4 39.3 14.2 61.2 28.4 32.8 21.5 68.4 55.4 102.4 109.9 34 54.6 66.3 129.9 91.5 233.4 56.4 231.9 86.3 354.2 102.2 418.6 8 32.2 12.4 49.9 14.8 59.7 2.5 9.7 2.9 11.3 3.1 11.9 3.2 11.9 13.3 20.7 25.5 22.3 12.3 1.7 24.3-4 30.6-14.7l331.4-552.2 331.5 552.2c6.4 10.7 18.4 16.4 30.6 14.7 12.3-1.6 22.3-10.4 25.6-22.3 0.2-0.6 0.6-2.2 3-11.9 7.4-29.2 32.5-130.5 117.1-478.3 18.1-74.5 39.9-134.5 63.4-182.5 35.3-72.2 74.1-117.5 110.5-146.4 36.5-28.8 70.7-41.5 98.3-47q4.9-0.9 9.6-0.9c9.9 0 19.5 3 27.5 8.5 8.1 5.6 14.5 13.4 18.3 23.1 38.3 99.2 59.3 206.9 59.3 319.6 0 244.7-98.1 465.5-257.2 625.8-159.3 160.3-379.4 259.8-624 261.5q-3.1 0-6.1 0c-178.3 0-344.2-52.6-483.2-143l-16.8 25.8 20.7-22.8v-0.1c-12.6-11.4-32.1-10.5-43.6 2.1-11.4 12.6-10.5 32.1 2.1 43.6 1.4 1.2 2.4 2.1 4 3 148.6 96.8 326.3 153.1 516.8 153.1q3.2 0 6.5-0.1c261.3-1.7 497.1-108.2 667.3-279.6 170.2-171.4 275.2-408 275.2-669.3 0-120.4-22.5-235.7-63.5-341.8-8.3-21.6-22.9-39.5-41-51.8-18.1-12.3-39.7-19.3-62.3-19.3-7.1 0-14.3 0.7-21.5 2.1-24.1 4.8-51.7 13.8-80.6 29.7-43.4 23.9-89.5 63.6-131.4 126.3-41.9 62.8-79.7 148.6-108.2 265.8-56.4 231.9-86.4 354.2-102.3 418.5-7.9 32.1-12.3 49.8-14.7 59.3-1.2 4.8-1.9 7.6-2.3 9.1-0.2 0.7-0.3 1.2-0.3 1.4l-0.1 0.2 2 0.5-2-0.5 2 0.5-2-0.5 9.7 2.6-9.7-2.6 9.7 2.6-9.7-2.6 12.8 3.4-12.8-3.4 12.8 3.4-12.8-3.4v0.1l25.8 6.9-25.8-7.1v0.2l25.8 6.9-25.8-7.1 29.8 8.2 26.4-15.9-357.9-596.3c-5.6-9.3-15.6-14.9-26.5-14.9-10.8 0-20.8 5.7-26.4 14.9l-357.9 596.3 26.5 15.9 29.7-8.2-29.1 8 29.1-8-29.1 8 29.1-8-17.2 4.7 17.2-4.6v-0.1l-17.2 4.7 17.2-4.6v-0.1c-0.1-0.6-1.1-4.2-4-15.9-8.8-35-35.6-143.4-115.6-472.5-35.2-144.6-84.7-241.5-138.3-306.1-26.8-32.3-54.6-56.5-81.8-74.2-27.2-17.8-53.8-29.1-77.8-36-10.1-3-20.5-4.4-30.6-4.4-22.3 0-43.8 6.8-61.9 19-18 12.2-32.7 30-41 51.7-40.3 105.3-62.4 219.7-62.4 339.1 0 99.8 15.4 196.1 44 286.5 28.7 90.5 70.5 175.1 123.2 251.5l25.4-17.5-29.6-8.4-96.2 338.2c-4.7 16.4 4.9 33.5 21.2 38.1 16.4 4.7 33.5-4.8 38.1-21.2z"/>
			</g>
			<g id="&lt;Group&gt;">
			</g>
		</g>
	</g>
</svg>